<?xml version="1.0" encoding="utf-8" ?>
<svg baseProfile="full" height="200mm" version="1.1" viewBox="0,0,200,200" width="200mm" xmlns="http://www.w3.org/2000/svg" xmlns:ev="http://www.w3.org/2001/xml-events" xmlns:xlink="http://www.w3.org/1999/xlink"><defs /><rect fill="#1a1a1a" height="200" width="200" x="0" y="0" /><text alignment-baseline="middle" fill="#e1ed5e" style="dominant-baseline: central; font-size:9.0px; font-family:Arial;" text-anchor="middle" x="100.0" y="100.0">2024</text><line stroke="#e1ed5e" stroke-width="0.3" x1="100.0" x2="100.0" y1="15.0" y2="10.0" /><path d="M 100.0 14.0 a86.0,86.0 0 0,1 42.35913384403234,11.155469271406648" fill="none" id="id13" stroke="none" /><text fill="#e1ed5e" style="font-size:6.75px; font-family:Arial;" text-anchor="middle"><textPath startOffset="22.145653131862478" xlink:href="#id13">January</textPath></text><path d="M 100.0 79.0 l 0.0 -30.355612059917263 a51.35561205991726,51.35561205991726 0 0,0 0.8815873713753664,0.0075673672967765575 l -0.5210944465265116 30.35113909081492" fill="#8cff24" stroke="none" /><line stroke="#e1ed5e" stroke-width="0.3" x1="143.13028292997686" x2="145.6673583964461" y1="26.7553504044142" y2="22.446841604673864" /><path d="M 143.63769802327073 25.89364864446614 a86.0,86.0 0 0,1 29.32050498858742,28.57503671076993" fill="none" id="id14" stroke="none" /><text fill="#e1ed5e" style="font-size:6.75px; font-family:Arial;" text-anchor="middle"><textPath startOffset="20.669276256404974" xlink:href="#id14">February</textPath></text><line stroke="#e1ed5e" stroke-width="0.3" x1="172.87174338648825" x2="177.1583165268699" y1="56.24261187166439" y2="53.66864786411523" /><path d="M 173.72905801456457 55.72781907015455 a86.0,86.0 0 0,1 12.242430191666344,42.057860355516425" fill="none" id="id15" stroke="none" /><text fill="#e1ed5e" style="font-size:6.75px; font-family:Arial;" text-anchor="middle"><textPath startOffset="22.145653131862474" xlink:href="#id15">March</textPath></text><path d="M 118.18653347947321 89.5 l 12.999798842516455 -7.505437361137863 a36.01087472227572,36.01087472227572 0 0,0 0.3044918974795853,0.5380080069963243 l -13.126724105017416 7.28117258404242" fill="#ffbb11" stroke="none" /><path d="M 118.8641267826498 90.77261029715802 l 3.6438158698311827 -1.782372935876201 a25.056383534107386,25.056383534107386 0 0,0 0.18568061897232546,0.38800107946445334 l -3.67387574676342 1.7195593543466443" fill="#ff2503" stroke="none" /><path d="M 119.0197475246899 91.09779779509293 l 9.520117911840211 -4.455895881674752 a31.51131072529334,31.51131072529334 0 0,0 0.22510410197969707,0.491893087647988 l -9.59520647867496 4.291813811812079" fill="#ff7f0b" stroke="none" /><path d="M 119.16976305983485 91.42560881287824 l 7.930108267378097 -3.5470365610932055 a29.687236931157706,29.687236931157706 0 0,0 0.2040871975901747,0.4669914477101239 l -7.989829346985243 3.4103830436072324" fill="#ff6609" stroke="none" /><path d="M 119.4528033332814 92.08871423366111 l 12.25695558874513 -4.9847971331713525 a34.23182386382708,34.23182386382708 0 0,0 0.21670590584682925,0.5462404455091836 l -12.340720169558084 4.773655670448604" fill="#ffa40f" stroke="none" /><path d="M 119.58574465831526 92.42381321644754 l 8.406365529234053 -3.251762776007328 a30.01337575842267,30.01337575842267 0 0,0 0.1817514510294693,0.48211731722703305 l -8.460947664077963 3.106977178586137" fill="#ff6b09" stroke="none" /><path d="M 119.83427380445688 93.10060997987247 l 14.196746561334 -4.938365402696915 a36.03113654309955,36.03113654309955 0 0,0 0.19819626419260472,0.5859320379172067 l -14.279428247098972 4.693931690305546" fill="#ffbb11" stroke="none" /><path d="M 120.16314734710363 94.1308016681162 l 21.647142980339908 -6.301167832734781 a43.545587489962884,43.545587489962884 0 0,0 0.2027596765841327,0.7195225622859619 l -21.752121148998622 5.928637346545806" fill="#e5ff1a" stroke="none" /><path d="M 120.43855184770803 95.1765574152323 l 7.991022886018835 -1.8858596426732117 a29.21053672768963,29.21053672768963 0 0,0 0.11098493137811895,0.4890200857461305 l -8.022218678954621 1.748405222988055" fill="#ff6008" stroke="none" /><path d="M 120.51834098615036 95.52812308129327 l 11.677588474981532 -2.54507605671794 a32.95171471904766,32.95171471904766 0 0,0 0.11571118455452291,0.5537199060137385 l -11.719557370360421 2.344239699418797" fill="#ff930d" stroke="none" /><path d="M 120.77682067341334 96.94652285012252 l 62.330462020240034 -9.160431449632455 a84.0,84.0 0 0,0 0.19742193377914985,1.4284467671996575 l -62.478528470574396 8.089096374232712" fill="#4dd2ff" stroke="none" /><line stroke="#e1ed5e" stroke-width="0.3" x1="184.99686870605535" x2="189.99668451229388" y1="99.2704041080226" y2="99.22748670261217" /><path d="M 185.99683186730306 99.26182062694052 a86.0,86.0 0 0,1 -10.086455211305974,41.156179273409016" fill="none" id="id16" stroke="none" /><text fill="#e1ed5e" style="font-size:6.75px; font-family:Arial;" text-anchor="middle"><textPath startOffset="21.40746469413373" xlink:href="#id16">April</textPath></text><path d="M 120.96210409425399 101.26102812881392 l 22.469407216926342 1.3517037417100395 a43.5100280694053,43.5100280694053 0 0,0 -0.051250749715898776,0.7451746528757482 l -22.44289250604538 -1.7372218187401312" fill="#e6ff1a" stroke="none" /><path d="M 120.82617615685814 102.69636545807757 l 10.55782464800904 1.3669217756979861 a31.645944600597193,31.645944600597193 0 0,0 -0.0743762330871195,0.5381493721393166 l -10.53280389836671 -1.5479594560373877" fill="#ff810b" stroke="none" /><path d="M 120.77682067341334 103.0534771498775 l 7.444591451709542 1.0940985748149996 a28.524559360805057,28.524559360805057 0 0,0 -0.07535714241670848,0.4838469118817443 l -7.424712817154566 -1.2217336686281945" fill="#ff5608" stroke="none" /><path d="M 120.592083275326 104.11899336999214 l 14.730059424770525 2.9464244243281597 a36.021852999731706,36.021852999731706 0 0,0 -0.12649209050230711,0.6053104437057455 l -14.677309623443852 -3.1988513193193144" fill="#ffbb11" stroke="none" /><path d="M 120.43855184770803 104.8234425847677 l 2.998376060373109 0.7076085860933198 a24.0807416169701,24.0807416169701 0 0,0 -0.09840133340353226,0.4015110198237816 l -2.9857872004532813 -0.758975430525201" fill="#ff1702" stroke="none" /><path d="M 119.94978838288452 106.5578916946017 l 7.128337404308241 2.3432260915678196 a28.50359265058173,28.50359265058173 0 0,0 -0.15678954708118972,0.46352043626877554 l -7.087062435654687 -2.4652482023107556" fill="#ff5607" stroke="none" /><path d="M 119.16976305983485 108.57439118712176 l 13.706927365123523 6.130934265342234 a36.01559898101703,36.01559898101703 0 0,0 -0.2572809216525222,0.5622052456245146 l -13.599661978615945 -6.365328493181438" fill="#ffbb11" stroke="none" /><line stroke="#e1ed5e" stroke-width="0.3" x1="174.33088141563837" x2="178.70328620479359" y1="141.23008692659167" y2="143.65538615756765" /><path d="M 175.20536237346943 141.71514677278685 a86.0,86.0 0 0,1 -30.301960400862466,31.631185727798858" fill="none" id="id17" stroke="none" /><text fill="#e1ed5e" style="font-size:6.75px; font-family:Arial;" text-anchor="middle"><textPath startOffset="22.145653131862474" xlink:href="#id17">May</textPath></text><path d="M 118.36410011445183 110.18625677009912 l 19.861658635342526 11.016927237313446 a43.7125112988224,43.7125112988224 0 0,0 -0.3696135017998511,0.6530716419986253 l -19.669611768521296 -11.356255649411194" fill="#e3ff1b" stroke="none" /><path d="M 118.00360718960297 110.81064883170644 l 14.334936225404391 8.607717327183689 a37.72074143604611,37.72074143604611 0 0,0 -0.33810723536944387,0.5522727592307931 l -14.185061025579541 -8.852527202539038" fill="#ffd113" stroke="none" /><path d="M 115.41159269507618 114.26474011684316 l 6.6103819498547916 6.11847084551331 a30.00737669970355,30.00737669970355 0 0,0 -0.35314990934334345,0.37503296569046224 l -6.504376206775189 -6.23104527114827" fill="#ff6b09" stroke="none" /><path d="M 114.39649973595853 115.28858382429668 l 5.1493547244084175 5.468436271944583 a28.511301441035798,28.511301441035798 0 0,0 -0.35920197820910743,0.3324719884561895 l -5.054722974885342 -5.556026006533152" fill="#ff5608" stroke="none" /><path d="M 113.86319453409587 115.77377054828091 l 11.584426398459255 13.180950717623455 a38.54811661694035,38.54811661694035 0 0,0 -0.5007960585521799,0.4325757077722053 l -11.35645086014422 -13.377870557860378" fill="#ffdb14" stroke="none" /><path d="M 113.59037401385872 116.0094264158162 l 5.047371885583891 5.945791389781741 a28.79925625955356,28.79925625955356 0 0,0 -0.3796368233187203,0.31670654026398576 l -4.9445607281032755 -6.031560113957597" fill="#ff5a08" stroke="none" /><path d="M 113.31354834802062 116.24036423190432 l 4.760311109254464 5.8068055375310115 a28.50863185990579,28.50863185990579 0 0,0 -0.3811322110902026,0.3070131303206395 l -4.659928127809009 -5.8876669616450545" fill="#ff5608" stroke="none" /><path d="M 113.03279911837588 116.46651593811092 l 1.599096965309573 2.020406777292236 a23.57665571044924,23.57665571044924 0 0,0 -0.3195086549501359,0.24845186262004945 l -1.5641783657242065 -2.0475596915330785" fill="#ff1001" stroke="none" /><path d="M 112.7482090630111 116.68781488649013 l 14.622724237929885 19.14161542320431 a45.08787049841466,45.08787049841466 0 0,0 -0.6190929854569668,0.4645789179543376 l -14.291978263562152 -19.389813368422665" fill="#d3ff1c" stroke="none" /><path d="M 112.45986205192187 116.90419585922612 l 4.450249256493386 6.037617811550013 a28.500503135341383,28.500503135341383 0 0,0 -0.39631848235314054,0.28690401801382703 l -4.345949763766278 -6.113122600936918" fill="#ff5607" stroke="none" /><line stroke="#e1ed5e" stroke-width="0.3" x1="143.1302829299769" x2="145.66735839644613" y1="173.24464959558577" y2="177.55315839532614" /><path d="M 143.63769802327073 174.10635135553383 a86.0,86.0 0 0,1 -40.68552437913181,11.842963189579606" fill="none" id="id18" stroke="none" /><text fill="#e1ed5e" style="font-size:6.75px; font-family:Arial;" text-anchor="middle"><textPath startOffset="21.407464694133747" xlink:href="#id18">June</textPath></text><path d="M 110.65571695917076 118.09573695890943 l 4.64504198536931 7.888296794331774 a30.15432364302839,30.15432364302839 0 0,0 -0.44830509371089194,0.25882906653306487 l -4.508944423798019 -7.96687275814101" fill="#ff6d0a" stroke="none" /><path d="M 110.34350942703117 118.27599006163325 l 15.604835960271311 27.5722499152972 a52.68185396624672,52.68185396624672 0 0,0 -0.7908695543605326,0.43868201012640184 l -15.129222217754684 -27.836064840856746" fill="#7eff26" stroke="none" /><path d="M 109.71004243097381 118.62028667847754 l 3.469748451584845 6.653700159396105 a28.504057577632462,28.504057577632462 0 0,0 -0.4358036647088796,0.22252445642440377 l -3.3550175651623833 -6.712282567493345" fill="#ff5607" stroke="none" /><path d="M 109.06512990194946 118.94263497670748 l 3.8912569131366253 8.13123034125359 a30.014365603111322,30.014365603111322 0 0,0 -0.4666680531144144,0.2184242123089156 l -3.7511001461507045 -8.19683078513304" fill="#ff6b09" stroke="none" /><path d="M 108.73861861582097 119.09545874513695 l 6.14798306681445 13.434452535279414 a35.77437682992121,35.77437682992121 0 0,0 -0.5606127588532988,0.2507549563286649 l -5.916456905105524 -13.538011242517928" fill="#ffb811" stroke="none" /><path d="M 108.07796709384702 119.3841803445677 l 2.886768281016501 6.927192983346563 a28.50462748821078,28.50462748821078 0 0,0 -0.45328538976744376,0.18434722187425004 l -2.767428430058617 -6.975727461800105" fill="#ff5607" stroke="none" /><line stroke="#e1ed5e" stroke-width="0.3" x1="101.45913802915013" x2="101.54496967792366" y1="184.9874750549273" y2="189.98673829345242" /><path d="M 101.47630435890484 185.9873277026323 a86.0,86.0 0 0,1 -42.54439059252881,-10.42667462771756" fill="none" id="id19" stroke="none" /><text fill="#e1ed5e" style="font-size:6.75px; font-family:Arial;" text-anchor="middle"><textPath startOffset="22.145653131862474" xlink:href="#id19">July</textPath></text><line stroke="#e1ed5e" stroke-width="0.3" x1="58.13341422392154" x2="55.67067388415222" y1="173.97424548756322" y2="178.32567169271397" /><path d="M 57.64086615596768 174.84453072859336 a86.0,86.0 0 0,1 -31.369924170532247,-30.572349798747897" fill="none" id="id20" stroke="none" /><text fill="#e1ed5e" style="font-size:6.75px; font-family:Arial;" text-anchor="middle"><textPath startOffset="22.145653131862474" xlink:href="#id20">August</textPath></text><path d="M 82.576782715395 111.72311816256416 l -7.471172714893379 5.0269384304246785 a30.00491708562871,30.00491708562871 0 0,0 -0.2838687493868742,-0.42981346705358164 l 7.55636590320098 -4.897945085032036" fill="#ff6b09" stroke="none" /><line stroke="#e1ed5e" stroke-width="0.3" x1="26.387840678322732" x2="22.057713659400534" y1="142.50000000000003" y2="145.00000000000006" /><path d="M 25.521815274538284 143.00000000000003 a86.0,86.0 0 0,1 -11.493303480769212,-40.785679425670985" fill="none" id="id21" stroke="none" /><text fill="#e1ed5e" style="font-size:6.75px; font-family:Arial;" text-anchor="middle"><textPath startOffset="21.40746469413373" xlink:href="#id21">September</textPath></text><path d="M 81.4637452351635 109.86951160357371 l -6.623566620351515 3.5266761514636236 a28.50393759645808,28.50393759645808 0 0,0 -0.22625601903672102,-0.4338757494772682 l 6.683130708363185 -3.4124541588818524" fill="#ff5607" stroke="none" /><path d="M 80.83023694016515 108.57439118712176 l -4.181953355566113 1.870534543645492 a25.5812261837964,25.5812261837964 0 0,0 -0.1758601103524085,-0.40240234810243575 l 4.21344734793549 -1.7984701257672069" fill="#ff2d04" stroke="none" /><path d="M 80.68587082218212 108.24405325689762 l -5.5252503148524665 2.358400807717927 a27.00753238956078,27.00753238956078 0 0,0 -0.178345083108374,-0.4279632752122598 l 5.564921242497326 -2.2632050230643856" fill="#ff4106" stroke="none" /><path d="M 80.5471966667186 107.91128576633889 l -4.279751121843502 1.7405375232363511 a25.620145077236693,25.620145077236693 0 0,0 -0.16218933495847476,-0.4088230740106142 l 4.308999131768101 -1.6668134320121717" fill="#ff2d04" stroke="none" /><path d="M 79.94057633289273 106.21446072829308 l -14.333433062192741 4.440534202020758 a36.00552056236891,36.00552056236891 0 0,0 -0.1778392901387564,-0.5919691577774748 l 14.407548672335128 -4.1938274406525595" fill="#ffbb11" stroke="none" /><line stroke="#e1ed5e" stroke-width="0.3" x1="15.003131293944662" x2="10.003315487706104" y1="100.72959589197737" y2="100.7725132973878" /><path d="M 14.003168132696942 100.73817937305945 a86.0,86.0 0 0,1 10.791469493833604,-42.45332614584628" fill="none" id="id22" stroke="none" /><text fill="#e1ed5e" style="font-size:6.75px; font-family:Arial;" text-anchor="middle"><textPath startOffset="22.145653131862435" xlink:href="#id22">October</textPath></text><path d="M 79.00696218219943 99.45929381324524 l -7.505123002649003 -0.19330534604414615 a28.507612019923542,28.507612019923542 0 0,0 0.0167995534151858,-0.48910066776259603 l 7.500698762236967 0.32211227837088074" fill="#ff5607" stroke="none" /><path d="M 79.01933749520258 99.09900007780938 l -14.98750750806798 -0.6436280596722276 a36.00132122126553,36.00132122126553 0 0,0 0.031815585682387244,-0.6172138626362452 l 14.97425033292902 0.9008137156851848" fill="#ffbb11" stroke="none" /><path d="M 79.407916724674 95.88100663000787 l -22.288183163644277 -4.458260849703543 a43.72969860205268,43.72969860205268 0 0,0 0.15355847999408814,-0.7348329155672302 l 22.20836697282582 4.840210216556183" fill="#e3ff1b" stroke="none" /><path d="M 80.16572619554312 93.10060997987247 l -4.262679984803055 -1.482781373096652 a25.51321185556838,25.51321185556838 0 0,0 0.1474418596392681,-0.4124211226387291 l 4.236597955119844 1.5557374521163025" fill="#ff2c04" stroke="none" /><path d="M 80.28708602549916 92.7611449362534 l -14.511553111080218 -5.328843308343548 a36.45903440388758,36.45903440388758 0 0,0 0.22078430828230175,-0.5856566084725826 l 14.41793811898348 5.577168197010276" fill="#ffc111" stroke="none" /><path d="M 80.41425534168474 92.42381321644754 l -13.995022340951397 -5.413575288801797 a36.0055805529561,36.0055805529561 0 0,0 0.22793474225350827,-0.5745444484728568 l 13.900028923731758 5.653020754488237" fill="#ffbb11" stroke="none" /><path d="M 80.5471966667186 92.08871423366112 l -13.900001138372366 -5.653009454424462 a36.0055505576625,36.0055505576625 0 0,0 0.23776377693252246,-0.5705465097742407 l 13.800911516903366 5.890788473639966" fill="#ffbb11" stroke="none" /><path d="M 81.46374523516351 90.13048839642627 l -5.785912297660863 -3.0806724056982135 a27.554946497680483,27.554946497680483 0 0,0 0.22589105622266203,-0.41561410080979766 l 5.73217589182285 3.179541339982631" fill="#ff4906" stroke="none" /><line stroke="#e1ed5e" stroke-width="0.3" x1="26.387840678322718" x2="22.05771365940052" y1="57.49999999999999" y2="54.99999999999999" /><path d="M 25.521815274538284 56.99999999999999 a86.0,86.0 0 0,1 29.574782752854787,-30.34633250058573" fill="none" id="id23" stroke="none" /><text fill="#e1ed5e" style="font-size:6.75px; font-family:Arial;" text-anchor="middle"><textPath startOffset="21.40746469413373" xlink:href="#id23">November</textPath></text><path d="M 81.99639281039701 89.18935116829357 l -18.00515439974203 -10.811577886939965 a42.00180471683134,42.00180471683134 0 0,0 0.37648024754267334,-0.6149521907719396 l 17.81690618774396 11.119067193836448" fill="#f8ff18" stroke="none" /><path d="M 82.18462484594161 88.88188828441811 l -8.914140396288479 -5.563082894257188 a31.507606306534285,31.507606306534285 0 0,0 0.2902935428348058,-0.4563896658121793 l 8.817329161827784 5.7152862347480395" fill="#ff7f0b" stroke="none" /><path d="M 82.37810715431573 88.57770195909679 l -12.593636934771306 -8.163043309113874 a36.00783019997577,36.00783019997577 0 0,0 0.34066075562987164,-0.5158038029287211 l 12.451651740220704 8.378026990381656" fill="#ffbb11" stroke="none" /><path d="M 82.576782715395 88.27688183743585 l -6.24820497035607 -4.204071152583658 a28.530888367753725,28.530888367753725 0 0,0 0.2768994222440382,-0.40400453229354055 l 6.175115811296718 4.310710419947233" fill="#ff5608" stroke="none" /><path d="M 82.98947788004972 87.6856937992154 l -15.841369873985176 -11.467930137156078 a40.55664646904212,40.55664646904212 0 0,0 0.4130945129610075,-0.5604420439299646 l 15.64217334144035 11.738178490354905" fill="#fff417" stroke="none" /><path d="M 83.2033758604659 87.39550010848427 l -7.203025887505005 -5.4052849110285655 a30.00559197973461,30.00559197973461 0 0,0 0.3126983082418282,-0.40933212323909607 l 7.10917560190887 5.5281379475085455" fill="#ff6b09" stroke="none" /><path d="M 83.42222388311158 87.10902102172516 l -1.2000663772708342 -0.9331788735023915 a22.520191474718608,22.520191474718608 0 0,0 0.23992965815591752,-0.3031432851964541 l 1.183870288473355 0.9536421026135284" fill="#ff0000" stroke="none" /><path d="M 83.8745106332314 86.54754324733833 l -2.773356345987484 -2.3136325016592476 a24.611703306552613,24.611703306552613 0 0,0 0.27343067536993576,-0.32210064805413047 l 2.733231107110434 2.3608999321629347" fill="#ff1f03" stroke="none" /><path d="M 85.60350026404147 84.71141617570332 l -10.296396088622219 -10.934415835529503 a36.019228411542095,36.019228411542095 0 0,0 0.4537912141874592,-0.4200223731424553 l 10.107175103120806 11.109555954804323" fill="#ffbb11" stroke="none" /><path d="M 86.13680546590413 84.22622945171909 l -15.846491933679507 -18.030398920124984 a45.00430361045731,45.00430361045731 0 0,0 0.5846713106626512,-0.5050251528639939 l 15.534641143254008 18.29976820545369" fill="#d4ff1c" stroke="none" /><path d="M 88.12776184653039 82.6780497279521 l -4.242887715098682 -6.190499976564548 a28.50495743644033,28.50495743644033 0 0,0 0.4059970750893633,-0.27317295119389695 l 4.13599435191233 6.262422601815555" fill="#ff5607" stroke="none" /><path d="M 88.4268655584334 82.4767994020092 l -8.756264928007775 -13.258101130454127 a36.888656994057364,36.888656994057364 0 0,0 0.5313975594021285,-0.3444454778412874 l 8.52738173634862 13.40646044999932" fill="#ffc612" stroke="none" /><line stroke="#e1ed5e" stroke-width="0.3" x1="56.869717070023135" x2="54.33264160355391" y1="26.7553504044142" y2="22.446841604673864" /><path d="M 56.362301976729285 25.89364864446614 a86.0,86.0 0 0,1 42.16139366436587,-11.88097634709845" fill="none" id="id24" stroke="none" /><text fill="#e1ed5e" style="font-size:6.75px; font-family:Arial;" text-anchor="middle"><textPath startOffset="22.145653131862474" xlink:href="#id24">December</textPath></text><path d="M 92.592206182469 80.34994680014964 l -2.681036664806426 -7.111768279716327 a28.600342470074338,28.600342470074338 0 0,0 0.460888864680017,-0.16924477508647295 l 2.558558648472282 7.156743903811522" fill="#ff5708" stroke="none" /><path d="M 93.27111125876988 80.10723608172694 l -2.6851214454257732 -7.938084438587723 a29.379920150623988,29.379920150623988 0 0,0 0.479140696253004,-0.15750306380186777 l 2.548458011525008 7.9830084237916195" fill="#ff6209" stroke="none" /><path d="M 95.70440661134978 79.44403061299748 l -1.5845491918089902 -7.582641496070501 a28.74643454753171,28.74643454753171 0 0,0 0.4839031257622003,-0.096794177649876 l 1.4541495805158133 7.608725070383243" fill="#ff5908" stroke="none" /><path d="M 99.27912038922189 79.0123766808444 l -0.28744117297549665 -8.368536125351506 a29.373471162500934,29.373471162500934 0 0,0 0.5040860917377279,-0.012983469606696807 l 0.14374176716702491 8.372237312308249" fill="#ff6209" stroke="none" /></svg>